
<svg xmlns="http://www.w3.org/2000/svg" xml:space="preserve" width="13px" height="18px" version="1.0" style="shape-rendering:geometricPrecision; text-rendering:geometricPrecision; image-rendering:optimizeQuality; fill-rule:evenodd; clip-rule:evenodd"






  <path class="fil0" d="M6.88 9.29l0.15 0 0 0.11c0,0.05 0,0.08 -0.02,0.1 -0.02,0.03 -0.05,0.05 -0.1,0.07l-0.03 -0.06c0.03,-0.01 0.05,-0.03 0.06,-0.04 0.01,-0.01 0.01,-0.03 0.01,-0.04l-0.07 0 0 -0.14zm-0.18 0l0.16 0 0 0.11c0,0.05 -0.01,0.08 -0.03,0.1 -0.02,0.03 -0.05,0.05 -0.09,0.07l-0.04 -0.06c0.03,-0.01 0.05,-0.03 0.06,-0.04 0.01,-0.01 0.02,-0.03 0.02,-0.04l-0.08 0 0 -0.14z"/>

</svg>
