<svg width="1016" height="84" viewBox="0 0 1016 84" fill="none" xmlns="http://www.w3.org/2000/svg">
<path d="M17.1328 20.6465V16.9512L30.4746 16.9297V28.6172C28.4264 30.25 26.3138 31.4818 24.1367 32.3125C21.9596 33.1289 19.7253 33.5371 17.4336 33.5371C14.3398 33.5371 11.5254 32.8783 8.99023 31.5605C6.4694 30.2285 4.56445 28.3092 3.27539 25.8027C1.98633 23.2962 1.3418 20.4961 1.3418 17.4023C1.3418 14.3372 1.97917 11.4798 3.25391 8.83008C4.54297 6.16602 6.39062 4.18945 8.79688 2.90039C11.2031 1.61133 13.9746 0.966797 17.1113 0.966797C19.3887 0.966797 21.444 1.33919 23.2773 2.08398C25.125 2.81445 26.5716 3.83854 27.6172 5.15625C28.6628 6.47396 29.4577 8.19271 30.002 10.3125L26.2422 11.3438C25.7695 9.73958 25.1823 8.47917 24.4805 7.5625C23.7786 6.64583 22.776 5.91536 21.4727 5.37109C20.1693 4.8125 18.7227 4.5332 17.1328 4.5332C15.2279 4.5332 13.5807 4.82682 12.1914 5.41406C10.8021 5.98698 9.67773 6.74609 8.81836 7.69141C7.97331 8.63672 7.31445 9.67513 6.8418 10.8066C6.03971 12.7546 5.63867 14.8672 5.63867 17.1445C5.63867 19.9518 6.11849 22.3008 7.07812 24.1914C8.05208 26.082 9.46289 27.4857 11.3105 28.4023C13.1582 29.319 15.1204 29.7773 17.1973 29.7773C19.002 29.7773 20.7637 29.4336 22.4824 28.7461C24.2012 28.0443 25.5046 27.2995 26.3926 26.5117V20.6465H17.1328ZM33.1816 33L45.2773 1.50391H49.7676L62.6582 33H57.9102L54.2363 23.4609H41.0664L37.6074 33H33.1816ZM42.2695 20.0664H52.9473L49.6602 11.3438C48.6576 8.69401 47.9128 6.51693 47.4258 4.8125C47.0247 6.83203 46.459 8.83724 45.7285 10.8281L42.2695 20.0664ZM65.8594 33V1.50391H72.1328L79.5879 23.8047C80.2754 25.8815 80.7767 27.4355 81.0918 28.4668C81.4499 27.321 82.0085 25.638 82.7676 23.418L90.3086 1.50391H95.916V33H91.8984V6.63867L82.7461 33H78.9863L69.877 6.1875V33H65.8594ZM102.727 33V1.50391H125.5V5.2207H106.895V14.8672H124.318V18.5625H106.895V29.2832H126.23V33H102.727ZM142.967 17.6602C142.967 12.4323 144.37 8.3431 147.178 5.39258C149.985 2.42773 153.609 0.945312 158.049 0.945312C160.956 0.945312 163.577 1.63997 165.912 3.0293C168.247 4.41862 170.023 6.35938 171.24 8.85156C172.472 11.3294 173.088 14.1439 173.088 17.2949C173.088 20.4889 172.443 23.3464 171.154 25.8672C169.865 28.388 168.039 30.3001 165.676 31.6035C163.312 32.8926 160.763 33.5371 158.027 33.5371C155.062 33.5371 152.413 32.821 150.078 31.3887C147.743 29.9564 145.975 28.0013 144.771 25.5234C143.568 23.0456 142.967 20.4245 142.967 17.6602ZM147.264 17.7246C147.264 21.5202 148.281 24.5137 150.314 26.7051C152.363 28.8822 154.926 29.9707 158.006 29.9707C161.143 29.9707 163.721 28.8678 165.74 26.6621C167.774 24.4564 168.791 21.3268 168.791 17.2734C168.791 14.7096 168.354 12.4753 167.48 10.5703C166.621 8.65104 165.354 7.16862 163.678 6.12305C162.016 5.06315 160.147 4.5332 158.07 4.5332C155.12 4.5332 152.577 5.55013 150.443 7.58398C148.324 9.60352 147.264 12.9837 147.264 17.7246ZM187.482 33L175.279 1.50391H179.791L187.977 24.3848C188.635 26.2181 189.187 27.9368 189.631 29.541C190.118 27.8223 190.684 26.1035 191.328 24.3848L199.836 1.50391H204.09L191.758 33H187.482ZM207.914 33V1.50391H230.688V5.2207H212.082V14.8672H229.506V18.5625H212.082V29.2832H231.418V33H207.914ZM237.24 33V1.50391H251.205C254.012 1.50391 256.146 1.79036 257.607 2.36328C259.068 2.92188 260.236 3.91732 261.109 5.34961C261.983 6.7819 262.42 8.36458 262.42 10.0977C262.42 12.332 261.697 14.2155 260.25 15.748C258.803 17.2806 256.569 18.2546 253.547 18.6699C254.65 19.1999 255.488 19.7227 256.061 20.2383C257.278 21.3555 258.431 22.752 259.52 24.4277L264.998 33H259.756L255.588 26.4473C254.37 24.5566 253.368 23.11 252.58 22.1074C251.792 21.1048 251.083 20.403 250.453 20.002C249.837 19.6009 249.207 19.3216 248.562 19.1641C248.09 19.0638 247.316 19.0137 246.242 19.0137H241.408V33H237.24ZM241.408 15.4043H250.367C252.272 15.4043 253.762 15.2109 254.836 14.8242C255.91 14.4232 256.727 13.793 257.285 12.9336C257.844 12.0599 258.123 11.1146 258.123 10.0977C258.123 8.60807 257.579 7.38346 256.49 6.42383C255.416 5.46419 253.712 4.98438 251.377 4.98438H241.408V15.4043ZM277.824 23.1602V20.0449H321.824V23.1602H277.824ZM12.2129 64.8887V68.6055H23.9219C23.7643 72.1432 22.7832 74.9362 20.9785 76.9844C19.1738 79.0182 16.8607 80.0352 14.0391 80.0352C9.02604 80.0352 5.88216 77.3711 4.60742 72.043L0.589844 73.0957C2.40885 80.0566 6.79167 83.5371 13.7383 83.5371C18.7083 83.5371 22.4036 81.9401 24.8242 78.7461C27.2591 75.5378 28.3978 71.5918 28.2402 66.9082C28.2402 64.0436 27.696 61.4297 26.6074 59.0664C25.5332 56.7031 23.8789 54.7624 21.6445 53.2441C19.4102 51.7259 16.7461 50.9668 13.6523 50.9668C10.3867 50.9668 7.65104 51.776 5.44531 53.3945C3.25391 55.013 1.77148 57.2617 0.998047 60.1406L5.08008 61.2148C6.26888 56.8177 9.13346 54.6191 13.6738 54.6191C16.7389 54.6191 19.138 55.543 20.8711 57.3906C22.6185 59.2383 23.5781 61.7376 23.75 64.8887H12.2129ZM42.0332 83V55.2207H31.6562V51.5039H56.6211V55.2207H46.2012V83H42.0332ZM57.6738 67.6602C57.6738 62.4323 59.0775 58.3431 61.8848 55.3926C64.6921 52.4277 68.3158 50.9453 72.7559 50.9453C75.6634 50.9453 78.2845 51.64 80.6191 53.0293C82.9538 54.4186 84.7298 56.3594 85.9473 58.8516C87.179 61.3294 87.7949 64.1439 87.7949 67.2949C87.7949 70.4889 87.1504 73.3464 85.8613 75.8672C84.5723 78.388 82.7461 80.3001 80.3828 81.6035C78.0195 82.8926 75.4701 83.5371 72.7344 83.5371C69.7695 83.5371 67.1198 82.821 64.7852 81.3887C62.4505 79.9564 60.6816 78.0013 59.4785 75.5234C58.2754 73.0456 57.6738 70.4245 57.6738 67.6602ZM61.9707 67.7246C61.9707 71.5202 62.9876 74.5137 65.0215 76.7051C67.0697 78.8822 69.6335 79.9707 72.7129 79.9707C75.8496 79.9707 78.4277 78.8678 80.4473 76.6621C82.4811 74.4564 83.498 71.3268 83.498 67.2734C83.498 64.7096 83.0612 62.4753 82.1875 60.5703C81.3281 58.651 80.0605 57.1686 78.3848 56.123C76.7233 55.0632 74.8542 54.5332 72.7773 54.5332C69.8268 54.5332 67.2845 55.5501 65.1504 57.584C63.0306 59.6035 61.9707 62.9837 61.9707 67.7246ZM105.305 83V51.5039H111.578L119.033 73.8047C119.721 75.8815 120.222 77.4355 120.537 78.4668C120.895 77.321 121.454 75.638 122.213 73.418L129.754 51.5039H135.361V83H131.344V56.6387L122.191 83H118.432L109.322 56.1875V83H105.305ZM142.172 83V51.5039H164.945V55.2207H146.34V64.8672H163.764V68.5625H146.34V79.2832H165.676V83H142.172ZM193.906 71.957L198.074 73.0098C197.201 76.4329 195.625 79.0469 193.348 80.8516C191.085 82.6419 188.313 83.5371 185.033 83.5371C181.639 83.5371 178.874 82.8496 176.74 81.4746C174.62 80.0853 173.002 78.0801 171.885 75.459C170.782 72.8379 170.23 70.0234 170.23 67.0156C170.23 63.7357 170.854 60.8783 172.1 58.4434C173.36 55.9941 175.143 54.1393 177.449 52.8789C179.77 51.6042 182.319 50.9668 185.098 50.9668C188.249 50.9668 190.898 51.7689 193.047 53.373C195.195 54.9772 196.692 57.2331 197.537 60.1406L193.434 61.1074C192.703 58.8158 191.643 57.1471 190.254 56.1016C188.865 55.056 187.117 54.5332 185.012 54.5332C182.591 54.5332 180.564 55.1133 178.932 56.2734C177.313 57.4336 176.174 58.9948 175.516 60.957C174.857 62.9049 174.527 64.9173 174.527 66.9941C174.527 69.6725 174.914 72.0143 175.688 74.0195C176.475 76.0104 177.693 77.5 179.34 78.4883C180.987 79.4766 182.77 79.9707 184.689 79.9707C187.024 79.9707 189.001 79.2975 190.619 77.9512C192.238 76.6048 193.333 74.6068 193.906 71.957ZM209.783 83V55.2207H199.406V51.5039H224.371V55.2207H213.951V83H209.783ZM225.424 67.6602C225.424 62.4323 226.827 58.3431 229.635 55.3926C232.442 52.4277 236.066 50.9453 240.506 50.9453C243.413 50.9453 246.035 51.64 248.369 53.0293C250.704 54.4186 252.48 56.3594 253.697 58.8516C254.929 61.3294 255.545 64.1439 255.545 67.2949C255.545 70.4889 254.9 73.3464 253.611 75.8672C252.322 78.388 250.496 80.3001 248.133 81.6035C245.77 82.8926 243.22 83.5371 240.484 83.5371C237.52 83.5371 234.87 82.821 232.535 81.3887C230.201 79.9564 228.432 78.0013 227.229 75.5234C226.025 73.0456 225.424 70.4245 225.424 67.6602ZM229.721 67.7246C229.721 71.5202 230.738 74.5137 232.771 76.7051C234.82 78.8822 237.383 79.9707 240.463 79.9707C243.6 79.9707 246.178 78.8678 248.197 76.6621C250.231 74.4564 251.248 71.3268 251.248 67.2734C251.248 64.7096 250.811 62.4753 249.938 60.5703C249.078 58.651 247.811 57.1686 246.135 56.123C244.473 55.0632 242.604 54.5332 240.527 54.5332C237.577 54.5332 235.035 55.5501 232.9 57.584C230.781 59.6035 229.721 62.9837 229.721 67.7246ZM273.312 83V51.5039H277.48V64.4375H293.852V51.5039H298.02V83H293.852V68.1543H277.48V83H273.312ZM305.066 83V51.5039H327.84V55.2207H309.234V64.8672H326.658V68.5625H309.234V79.2832H328.57V83H305.066ZM331.621 74.1055L335.596 73.0742C335.896 74.6068 336.699 76.1393 338.002 77.6719C339.32 79.2044 341.06 79.9707 343.223 79.9707C345.428 79.9707 347.169 79.4049 348.443 78.2734C349.718 77.1419 350.355 75.7741 350.355 74.1699C350.355 72.4368 349.682 71.0618 348.336 70.0449C346.99 69.0137 345.156 68.498 342.836 68.498H340.838V64.8672C342.757 64.8672 344.225 64.7598 345.242 64.5449C346.259 64.3158 347.154 63.75 347.928 62.8477C348.715 61.931 349.109 60.8926 349.109 59.7324C349.109 58.3574 348.572 57.1615 347.498 56.1445C346.438 55.1276 344.999 54.6191 343.18 54.6191C341.59 54.6191 340.229 55.0202 339.098 55.8223C337.98 56.61 337.207 57.6628 336.777 58.9805C336.348 60.2839 336.133 61.2578 336.133 61.9023L332.137 61C333.125 54.3112 336.82 50.9668 343.223 50.9668C346.302 50.9668 348.744 51.8262 350.549 53.5449C352.354 55.2493 353.256 57.2474 353.256 59.5391C353.256 62.4753 351.867 64.7526 349.088 66.3711C350.692 66.8151 352.031 67.7246 353.105 69.0996C354.194 70.4603 354.738 72.0931 354.738 73.998C354.738 76.7051 353.686 78.9753 351.58 80.8086C349.489 82.6276 346.71 83.5371 343.244 83.5371C337.286 83.5371 333.411 80.3932 331.621 74.1055ZM356.479 83L368.574 51.5039H373.064L385.955 83H381.207L377.533 73.4609H364.363L360.904 83H356.479ZM365.566 70.0664H376.244L372.957 61.3438C371.954 58.694 371.21 56.5169 370.723 54.8125C370.322 56.832 369.756 58.8372 369.025 60.8281L365.566 70.0664ZM389.479 51.5039H409.91V55.2207H393.646V64.9316H401.166C403.945 64.9316 406.15 65.1966 407.783 65.7266C409.43 66.2565 410.748 67.2591 411.736 68.7344C412.725 70.1953 413.219 71.8997 413.219 73.8477C413.219 75.4375 412.861 76.9271 412.145 78.3164C411.443 79.6914 410.39 80.8158 408.986 81.6895C407.583 82.5632 405.191 83 401.811 83H389.479V51.5039ZM393.646 79.4551H401.982C404.231 79.4551 405.914 78.9967 407.031 78.0801C408.163 77.1634 408.729 75.7884 408.729 73.9551C408.729 72.6517 408.406 71.5632 407.762 70.6895C407.117 69.8158 406.222 69.2357 405.076 68.9492C403.93 68.6628 401.975 68.5195 399.211 68.5195H393.646V79.4551ZM418.375 51.5039H422.543V64.9531H430.062C434.99 64.9531 438.227 65.8626 439.773 67.6816C441.335 69.5007 442.115 71.5632 442.115 73.8691C442.115 76.304 441.285 78.4382 439.623 80.2715C437.962 82.0905 434.875 83 430.363 83H418.375V51.5039ZM422.543 79.4551H430.17C432.791 79.4551 434.689 79.0182 435.863 78.1445C437.052 77.2565 437.646 75.8457 437.646 73.9121C437.646 72.5944 437.288 71.4915 436.572 70.6035C435.856 69.7155 434.932 69.1497 433.801 68.9062C432.669 68.6628 430.779 68.541 428.129 68.541H422.543V79.4551ZM445.896 51.5039H450.064V83H445.896V51.5039ZM456.961 83V51.5039H468.777C471.184 51.5039 473.11 51.8262 474.557 52.4707C476.018 53.1009 477.156 54.082 477.973 55.4141C478.803 56.7318 479.219 58.1139 479.219 59.5605C479.219 60.9069 478.854 62.1745 478.123 63.3633C477.393 64.5521 476.29 65.5117 474.814 66.2422C476.719 66.8008 478.18 67.7533 479.197 69.0996C480.229 70.446 480.744 72.0358 480.744 73.8691C480.744 75.3444 480.429 76.7194 479.799 77.9941C479.183 79.2546 478.417 80.2285 477.5 80.916C476.583 81.6035 475.43 82.1263 474.041 82.4844C472.666 82.8281 470.976 83 468.971 83H456.961ZM461.129 64.7383H467.939C469.787 64.7383 471.112 64.6165 471.914 64.373C472.974 64.0579 473.769 63.5352 474.299 62.8047C474.843 62.0742 475.115 61.1576 475.115 60.0547C475.115 59.0091 474.865 58.0924 474.363 57.3047C473.862 56.5026 473.146 55.9583 472.215 55.6719C471.284 55.3711 469.687 55.2207 467.424 55.2207H461.129V64.7383ZM461.129 79.2832H468.971C470.317 79.2832 471.262 79.2331 471.807 79.1328C472.766 78.9609 473.568 78.6745 474.213 78.2734C474.857 77.8724 475.387 77.2923 475.803 76.5332C476.218 75.7598 476.426 74.8717 476.426 73.8691C476.426 72.6947 476.125 71.6777 475.523 70.8184C474.922 69.9447 474.084 69.3359 473.01 68.9922C471.95 68.6341 470.417 68.4551 468.412 68.4551H461.129V79.2832ZM481.561 83L493.656 51.5039H498.146L511.037 83H506.289L502.615 73.4609H489.445L485.986 83H481.561ZM490.648 70.0664H501.326L498.039 61.3438C497.036 58.694 496.292 56.5169 495.805 54.8125C495.404 56.832 494.838 58.8372 494.107 60.8281L490.648 70.0664ZM514.453 83V51.5039H537.227V55.2207H518.621V64.8672H536.045V68.5625H518.621V79.2832H537.957V83H514.453ZM543.586 83V51.5039H549.859L557.314 73.8047C558.002 75.8815 558.503 77.4355 558.818 78.4668C559.176 77.321 559.735 75.638 560.494 73.418L568.035 51.5039H573.643V83H569.625V56.6387L560.473 83H556.713L547.604 56.1875V83H543.586ZM580.582 51.5039H584.75V64.9531H592.27C597.197 64.9531 600.434 65.8626 601.98 67.6816C603.542 69.5007 604.322 71.5632 604.322 73.8691C604.322 76.304 603.492 78.4382 601.83 80.2715C600.169 82.0905 597.082 83 592.57 83H580.582V51.5039ZM584.75 79.4551H592.377C594.998 79.4551 596.896 79.0182 598.07 78.1445C599.259 77.2565 599.854 75.8457 599.854 73.9121C599.854 72.5944 599.495 71.4915 598.779 70.6035C598.063 69.7155 597.139 69.1497 596.008 68.9062C594.876 68.6628 592.986 68.541 590.336 68.541H584.75V79.4551ZM608.104 51.5039H612.271V83H608.104V51.5039ZM616.139 83L628.32 66.5859L617.578 51.5039H622.541L628.256 59.582C629.445 61.2578 630.29 62.5469 630.791 63.4492C631.493 62.3034 632.324 61.1074 633.283 59.8613L639.621 51.5039H644.154L633.09 66.3496L645.014 83H639.857L631.93 71.7637C631.486 71.1191 631.027 70.4173 630.555 69.6582C629.853 70.804 629.352 71.5918 629.051 72.0215L621.145 83H616.139ZM660.762 83V51.5039H672.578C674.984 51.5039 676.911 51.8262 678.357 52.4707C679.818 53.1009 680.957 54.082 681.773 55.4141C682.604 56.7318 683.02 58.1139 683.02 59.5605C683.02 60.9069 682.654 62.1745 681.924 63.3633C681.193 64.5521 680.09 65.5117 678.615 66.2422C680.52 66.8008 681.981 67.7533 682.998 69.0996C684.029 70.446 684.545 72.0358 684.545 73.8691C684.545 75.3444 684.23 76.7194 683.6 77.9941C682.984 79.2546 682.217 80.2285 681.301 80.916C680.384 81.6035 679.231 82.1263 677.842 82.4844C676.467 82.8281 674.777 83 672.771 83H660.762ZM664.93 64.7383H671.74C673.588 64.7383 674.913 64.6165 675.715 64.373C676.775 64.0579 677.57 63.5352 678.1 62.8047C678.644 62.0742 678.916 61.1576 678.916 60.0547C678.916 59.0091 678.665 58.0924 678.164 57.3047C677.663 56.5026 676.947 55.9583 676.016 55.6719C675.085 55.3711 673.488 55.2207 671.225 55.2207H664.93V64.7383ZM664.93 79.2832H672.771C674.118 79.2832 675.063 79.2331 675.607 79.1328C676.567 78.9609 677.369 78.6745 678.014 78.2734C678.658 77.8724 679.188 77.2923 679.604 76.5332C680.019 75.7598 680.227 74.8717 680.227 73.8691C680.227 72.6947 679.926 71.6777 679.324 70.8184C678.723 69.9447 677.885 69.3359 676.811 68.9922C675.751 68.6341 674.218 68.4551 672.213 68.4551H664.93V79.2832ZM690.324 51.5039H715.096V83H710.906V55.2207H694.492V83H690.324V51.5039ZM721.992 83V51.5039H744.766V55.2207H726.16V64.8672H743.584V68.5625H726.16V79.2832H745.496V83H721.992ZM773.727 83H769.559V70.3027C765.82 71.6921 762.548 72.3867 759.74 72.3867C757.549 72.3867 755.615 71.8783 753.939 70.8613C752.264 69.8301 751.139 68.5267 750.566 66.9512C750.008 65.3757 749.729 63.3132 749.729 60.7637V51.5039H753.896V60.377C753.896 63.8145 754.52 66.0775 755.766 67.166C757.026 68.2402 758.537 68.7773 760.299 68.7773C763.235 68.7773 766.322 68.1257 769.559 66.8223V51.5039H773.727V83ZM777.143 83L789.238 51.5039H793.729L806.619 83H801.871L798.197 73.4609H785.027L781.568 83H777.143ZM786.23 70.0664H796.908L793.621 61.3438C792.618 58.694 791.874 56.5169 791.387 54.8125C790.986 56.832 790.42 58.8372 789.689 60.8281L786.23 70.0664ZM814.525 83V55.2207H804.148V51.5039H829.113V55.2207H818.693V83H814.525ZM834.721 51.5039H854.443V83H850.275V55.2207H838.889V71.4414C838.889 74.7357 838.731 77.1491 838.416 78.6816C838.115 80.2142 837.471 81.4102 836.482 82.2695C835.494 83.1146 834.241 83.5371 832.723 83.5371C831.806 83.5371 830.703 83.3652 829.414 83.0215L830.123 79.3262C830.811 79.6126 831.398 79.7559 831.885 79.7559C832.83 79.7559 833.539 79.4049 834.012 78.7031C834.484 77.987 834.721 76.3112 834.721 73.6758V51.5039ZM861.383 83V51.5039H884.156V55.2207H865.551V64.8672H882.975V68.5625H865.551V79.2832H884.887V83H861.383ZM890.773 83V51.5039H894.941V64.4375H911.312V51.5039H915.48V83H911.312V68.1543H894.941V83H890.773ZM922.506 51.5039H926.287V76.4473L943.045 51.5039H947.234V83H943.453V58.1211L926.674 83H922.506V51.5039ZM954.131 51.5039H957.912V76.4473L974.67 51.5039H978.859V83H975.078V58.1211L958.299 83H954.131V51.5039ZM969.793 44.0059H972.436C972.221 45.7962 971.562 47.1712 970.459 48.1309C969.37 49.0905 967.917 49.5703 966.098 49.5703C964.264 49.5703 962.796 49.0977 961.693 48.1523C960.605 47.1927 959.953 45.8105 959.738 44.0059H962.381C962.581 44.9798 962.975 45.7103 963.562 46.1973C964.164 46.6699 964.966 46.9062 965.969 46.9062C967.129 46.9062 968.003 46.6771 968.59 46.2188C969.191 45.7461 969.592 45.0085 969.793 44.0059Z" fill="white"/>
<path d="M995.725 50.9668H1005.07V58.1641C1005.07 60.8138 1004.52 62.9121 1003.42 64.459C1002.31 65.9915 1000.43 67.3379 997.766 68.498L995.725 64.6738C997.386 63.9004 998.525 63.1341 999.141 62.375C999.771 61.6016 1000.12 60.6921 1000.19 59.6465H995.725V50.9668ZM1006.62 50.9668H1015.96V58.1641C1015.96 60.8138 1015.41 62.9121 1014.31 64.459C1013.21 65.9915 1011.32 67.3379 1008.66 68.498L1006.62 64.6738C1008.28 63.9004 1009.42 63.1341 1010.03 62.375C1010.66 61.6016 1011.01 60.6921 1011.09 59.6465H1006.62V50.9668Z" fill="#6C0287"/>
</svg>
