<svg width="21" height="19" viewBox="0 0 1016 84" fill="none" xmlns="http://www.w3.org/2000/svg">
<path d="M995.725 50.9668H1005.07V58.1641C1005.07 60.8138 1004.52 62.9121 1003.42 64.459C1002.31 65.9915 1000.43 67.3379 997.766 68.498L995.725 64.6738C997.386 63.9004 998.525 63.1341 999.141 62.375C999.771 61.6016 1000.12 60.6921 1000.19 59.6465H995.725V50.9668ZM1006.62 50.9668H1015.96V58.1641C1015.96 60.8138 1015.41 62.9121 1014.31 64.459C1013.21 65.9915 1011.32 67.3379 1008.66 68.498L1006.62 64.6738C1008.28 63.9004 1009.42 63.1341 1010.03 62.375C1010.66 61.6016 1011.01 60.6921 1011.09 59.6465H1006.62V50.9668Z" fill="#6C0287"/>
</svg>
