<?xml version="1.0" encoding="UTF-8"?>
<!DOCTYPE svg PUBLIC "-//W3C//DTD SVG 1.0//EN" "http://www.w3.org/TR/2001/REC-SVG-20010904/DTD/svg10.dtd">
<!-- Creator: CorelDRAW -->
<?xml-stylesheet href="q111“.css" type="text/css"?>
<svg xmlns="http://www.w3.org/2000/svg" xml:space="preserve" width="13px" height="19px" version="1.0" style="shape-rendering:geometricPrecision; text-rendering:geometricPrecision; image-rendering:optimizeQuality; fill-rule:evenodd; clip-rule:evenodd"
viewBox="0 0 13 18.39"
 xmlns:xlink="http://www.w3.org/1999/xlink"
 xmlns:xodm="http://www.corel.com/coreldraw/odm/2003">
 <g id="Слой_x0020_1">
  <metadata id="CorelCorpID_0Corel-Layer"/>
  <path class="fil0" d="M6.88 9.29l0.15 0 0 0.11c0,0.05 0,0.08 -0.02,0.1 -0.02,0.03 -0.05,0.05 -0.1,0.07l-0.03 -0.06c0.03,-0.01 0.05,-0.03 0.06,-0.04 0.01,-0.01 0.01,-0.03 0.01,-0.04l-0.07 0 0 -0.14zm-0.18 0l0.16 0 0 0.11c0,0.05 -0.01,0.08 -0.03,0.1 -0.02,0.03 -0.05,0.05 -0.09,0.07l-0.04 -0.06c0.03,-0.01 0.05,-0.03 0.06,-0.04 0.01,-0.01 0.02,-0.03 0.02,-0.04l-0.08 0 0 -0.14z"/>
 </g>
</svg>
