
<svg xmlns="http://www.w3.org/2000/svg" xml:space="preserve" width="21" height="19" version="1.1" style="shape-rendering:geometricPrecision; text-rendering:geometricPrecision; image-rendering:optimizeQuality; fill-rule:evenodd; clip-rule:evenodd"
viewBox="0 0 21000 29700"

  <path class="fil0" d="M11116.83 14999.54l246.06 0 0 189.48c0,69.76 -14.52,124.82 -43.55,165.17 -29.04,40.35 -78.82,75.98 -149.33,106.9l-53.18 -100.68c43.38,-20.36 73.35,-40.73 89.94,-61.09 16.59,-19.98 25.84,-43.74 27.72,-71.26l-117.66 0 0 -228.52zm-286.77 0l246.05 0 0 189.48c0,69.76 -14.52,124.82 -43.55,165.17 -29.04,40.35 -78.82,75.98 -149.33,106.9l-53.17 -100.68c43.37,-20.36 73.34,-40.73 89.94,-61.09 16.59,-19.98 25.83,-43.74 27.71,-71.26l-117.65 0 0 -228.52z"/>

</svg>
